<svg id="Group" xmlns="http://www.w3.org/2000/svg" width="18" height="18" viewBox="0 0 18 18">
  <path id="Shape" d="M6,14.625a1.5,1.5,0,0,1-1.5-1.5h3A1.5,1.5,0,0,1,6,14.625Zm6-2.25H0v-.75l1.5-1.5V6.375a5.322,5.322,0,0,1,.88-3.045A4.138,4.138,0,0,1,4.875,1.635v-.51a1.125,1.125,0,1,1,2.25,0v.51a4.144,4.144,0,0,1,2.492,1.7A5.314,5.314,0,0,1,10.5,6.375v3.75l1.5,1.5v.749ZM5.25,8.625v1.5h1.5v-1.5Zm0-4.5v3h1.5v-3Z" transform="translate(3 1.875)" fill="#069eda"/>
  <path id="Path" d="M0,0H18V18H0Z" fill="none"/>
</svg>
