<svg xmlns="http://www.w3.org/2000/svg" width="18" height="18" viewBox="0 0 18 18">
  <g id="list_alt-24px_1_" data-name="list_alt-24px (1)" opacity="0.4">
    <path id="Shape" d="M12.825,13.5H.675A.721.721,0,0,1,0,12.825V.675A.676.676,0,0,1,.675,0h12.15A.721.721,0,0,1,13.5.675v12.15A.8.8,0,0,1,12.825,13.5ZM1.5,1.5V12H12V1.5Zm9,9H6V9h4.5v1.5Zm-6,0H3V9H4.5v1.5Zm6-3H6V6h4.5V7.5Zm-6,0H3V6H4.5V7.5Zm6-3H6V3h4.5V4.5Zm-6,0H3V3H4.5V4.5Z" transform="translate(2.25 2.25)" fill="#fff"/>
    <path id="Path" d="M0,0H18V18H0Z" fill="none"/>
  </g>
</svg>
