<svg xmlns="http://www.w3.org/2000/svg" width="24" height="24" viewBox="0 0 24 24">
  <g id="Group_3" data-name="Group 3" transform="translate(-1387.5 -21.5)">
    <g id="settings_applications-24px" transform="translate(1389 23)">
      <path id="Path" d="M0,0H21.333V21.333H0Z" fill="none"/>
      <path id="Shape" d="M18.963,21.334H2.371A2.373,2.373,0,0,1,0,18.963V2.371A2.373,2.373,0,0,1,2.371,0H18.963a2.373,2.373,0,0,1,2.371,2.371V18.963A2.373,2.373,0,0,1,18.963,21.334ZM2.371,2.371V18.963H18.963V2.371Zm9.718,15.407H9.245a.365.365,0,0,1-.356-.3L8.628,15.6a5.005,5.005,0,0,1-1.2-.7l-1.766.711a.383.383,0,0,1-.129.023.36.36,0,0,1-.31-.177L3.8,13a.361.361,0,0,1,.071-.462l1.506-1.174v-.011a6.664,6.664,0,0,1-.047-.688,4.531,4.531,0,0,1,.059-.7L3.887,8.794A.363.363,0,0,1,3.8,8.332L5.226,5.879A.36.36,0,0,1,5.537,5.7a.386.386,0,0,1,.128.022l1.766.712a4.963,4.963,0,0,1,1.2-.688l.261-1.885a.367.367,0,0,1,.356-.308h2.844a.364.364,0,0,1,.356.3l.261,1.885a5.005,5.005,0,0,1,1.2.7l1.766-.712A.383.383,0,0,1,15.8,5.7a.363.363,0,0,1,.31.177l1.423,2.453a.362.362,0,0,1-.084.462l-1.5,1.174.005.053a6.419,6.419,0,0,1,.042.646,4.525,4.525,0,0,1-.048.688l1.5,1.173a.365.365,0,0,1,.084.463l-1.423,2.453a.363.363,0,0,1-.31.177.38.38,0,0,1-.128-.023L13.9,14.886a5.284,5.284,0,0,1-1.2.7l-.261,1.885A.367.367,0,0,1,12.089,17.778ZM10.667,8.64a2.027,2.027,0,1,0,2.027,2.027A2.029,2.029,0,0,0,10.667,8.64Z" fill="rgba(0,0,0,0.4)"/>
    </g>
    <rect id="Rectangle_3" data-name="Rectangle 3" width="24" height="24" transform="translate(1387.5 21.5)" fill="none"/>
  </g>
</svg>
