<?xml version="1.0" encoding="iso-8859-1"?>
<!-- Generator: Adobe Illustrator 19.0.0, SVG Export Plug-In . SVG Version: 6.00 Build 0)  -->
<svg version="1.1" id="Capa_1" xmlns="http://www.w3.org/2000/svg" xmlns:xlink="http://www.w3.org/1999/xlink" x="0px" y="0px"
	 viewBox="0 0 477.867 477.867" style="enable-background:new 0 0 477.867 477.867;" xml:space="preserve">
<g>
	<g>
		<path d="M460.8,17.067H17.067C7.641,17.067,0,24.708,0,34.133v409.6c0,9.426,7.641,17.067,17.067,17.067H460.8
			c9.426,0,17.067-7.641,17.067-17.067v-409.6C477.867,24.708,470.226,17.067,460.8,17.067z M443.733,426.667h-409.6v-102.4h409.6
			V426.667z M443.733,290.133h-409.6v-102.4h409.6V290.133z M443.733,153.6h-409.6V51.2h409.6V153.6z"/>
	</g>
</g>
<g>
	<g>
		<path d="M290.133,85.333h-204.8c-9.426,0-17.067,7.641-17.067,17.067s7.641,17.067,17.067,17.067h204.8
			c9.426,0,17.067-7.641,17.067-17.067S299.559,85.333,290.133,85.333z"/>
	</g>
</g>
<g>
	<g>
		<path d="M392.533,85.333h-17.067c-9.426,0-17.067,7.641-17.067,17.067s7.641,17.067,17.067,17.067h17.067
			c9.426,0,17.067-7.641,17.067-17.067S401.959,85.333,392.533,85.333z"/>
	</g>
</g>
<g>
	<g>
		<path d="M290.133,221.867h-204.8c-9.426,0-17.067,7.641-17.067,17.067S75.908,256,85.333,256h204.8
			c9.426,0,17.067-7.641,17.067-17.067S299.559,221.867,290.133,221.867z"/>
	</g>
</g>
<g>
	<g>
		<path d="M392.533,221.867h-17.067c-9.426,0-17.067,7.641-17.067,17.067S366.041,256,375.467,256h17.067
			c9.426,0,17.067-7.641,17.067-17.067S401.959,221.867,392.533,221.867z"/>
	</g>
</g>
<g>
	<g>
		<path d="M290.133,358.4h-204.8c-9.426,0-17.067,7.641-17.067,17.067c0,9.426,7.641,17.067,17.067,17.067h204.8
			c9.426,0,17.067-7.641,17.067-17.067C307.2,366.041,299.559,358.4,290.133,358.4z"/>
	</g>
</g>
<g>
	<g>
		<path d="M392.533,358.4h-17.067c-9.426,0-17.067,7.641-17.067,17.067c0,9.426,7.641,17.067,17.067,17.067h17.067
			c9.426,0,17.067-7.641,17.067-17.067C409.6,366.041,401.959,358.4,392.533,358.4z"/>
	</g>
</g>
<g>
</g>
<g>
</g>
<g>
</g>
<g>
</g>
<g>
</g>
<g>
</g>
<g>
</g>
<g>
</g>
<g>
</g>
<g>
</g>
<g>
</g>
<g>
</g>
<g>
</g>
<g>
</g>
<g>
</g>
</svg>
