<svg id="_x31__x2C_5" enable-background="new 0 0 24 24" height="512" viewBox="0 0 24 24" width="512" xmlns="http://www.w3.org/2000/svg"><path d="m21.25 12.75h-18.5c-1.517 0-2.75-1.233-2.75-2.75v-5.25c0-1.517 1.233-2.75 2.75-2.75h18.5c1.517 0 2.75 1.233 2.75 2.75v5.25c0 1.517-1.233 2.75-2.75 2.75zm-18.5-9.25c-.689 0-1.25.561-1.25 1.25v5.25c0 .689.561 1.25 1.25 1.25h18.5c.689 0 1.25-.561 1.25-1.25v-5.25c0-.689-.561-1.25-1.25-1.25z"/><path d="m21.25 22h-18.5c-1.517 0-2.75-1.233-2.75-2.75v-5.25c0-1.517 1.233-2.75 2.75-2.75h18.5c1.517 0 2.75 1.233 2.75 2.75v5.25c0 1.517-1.233 2.75-2.75 2.75zm-18.5-9.25c-.689 0-1.25.561-1.25 1.25v5.25c0 .689.561 1.25 1.25 1.25h18.5c.689 0 1.25-.561 1.25-1.25v-5.25c0-.689-.561-1.25-1.25-1.25z"/><path d="m5 9c-1.103 0-2-.897-2-2s.897-2 2-2 2 .897 2 2-.897 2-2 2zm0-2.5c-.275 0-.5.224-.5.5s.225.5.5.5.5-.224.5-.5-.225-.5-.5-.5z"/><path d="m5 19c-1.103 0-2-.897-2-2s.897-2 2-2 2 .897 2 2-.897 2-2 2zm0-2.5c-.275 0-.5.224-.5.5s.225.5.5.5.5-.224.5-.5-.225-.5-.5-.5z"/><circle cx="16" cy="17" r="1"/><circle cx="12" cy="17" r="1"/><circle cx="20" cy="17" r="1"/><circle cx="16" cy="7" r="1"/><circle cx="12" cy="7" r="1"/><circle cx="20" cy="7" r="1"/></svg>